<?xml version="1.0" encoding="UTF-8"?>
<svg width="18px" height="25px" viewBox="0 0 18 25" version="1.1" xmlns="http://www.w3.org/2000/svg" xmlns:xlink="http://www.w3.org/1999/xlink">
    <title>形状</title>
    <g id="页面-1" stroke="none" stroke-width="1" fill="none" fill-rule="evenodd">
        <g id="播放器" transform="translate(-951.000000, -630.000000)" fill="#929291">
            <g id="编组-8" transform="translate(770.000000, 270.000000)">
                <path d="M187.428571,361.5625 L187.428571,383.4375 C187.427575,384.300043 186.708616,384.999031 185.821429,385 L182.607143,385 C181.719955,384.999031 181.000996,384.300043 181,383.4375 L181,361.5625 C181.000996,360.699957 181.719955,360.000969 182.607143,360 L185.821429,360 C186.708616,360.000969 187.427575,360.699957 187.428571,361.5625 L187.428571,361.5625 Z M197.392857,360 L194.178571,360 C193.291384,360.000969 192.572425,360.699957 192.571429,361.5625 L192.571429,383.4375 C192.572425,384.300043 193.291384,384.999031 194.178571,385 L197.392857,385 C198.280045,384.999031 198.999004,384.300043 199,383.4375 L199,361.5625 C198.999004,360.699957 198.280045,360.000969 197.392857,360 L197.392857,360 Z" id="形状"></path>
            </g>
        </g>
    </g>
</svg>