<?xml version="1.0" encoding="UTF-8"?>
<svg width="42px" height="22px" viewBox="0 0 42 22" version="1.1" xmlns="http://www.w3.org/2000/svg" xmlns:xlink="http://www.w3.org/1999/xlink">
    <title>编组 11</title>
    <g id="页面-1" stroke="none" stroke-width="1" fill="none" fill-rule="evenodd">
        <g id="播放器" transform="translate(-1064.000000, -430.000000)">
            <g id="编组-8" transform="translate(770.000000, 270.000000)">
                <g id="编组-11" transform="translate(294.000000, 160.000000)">
                    <rect id="矩形" fill="#899600" x="0" y="0" width="42" height="22" rx="3"></rect>
                    <rect id="矩形备份-43" fill="#1C1F00" x="3" y="3" width="32" height="16" rx="2"></rect>
                    <rect id="矩形备份-44" fill="#1C1F00" x="36" y="7" width="3" height="8" rx="1.5"></rect>
                    <g id="编组" transform="translate(15.000000, 6.000000)" fill="#899600" fill-rule="nonzero">
                        <path d="M2.54717084,5.85256356 L0.400519896,5.85256356 C0.120191818,5.85256356 -0.0732740299,5.5958941 0.026647899,5.35644706 L2.159328,0.235558118 C2.21840007,0.0937877261 2.36701582,0 2.53289629,0 L6.13281898,0 C6.41679163,0 6.61025747,0.263058417 6.50304641,0.503616576 L5.26085593,3.29198019 L7.59945414,3.29198019 C7.94325845,3.29198019 8.12670175,3.66281755 7.89982735,3.89920901 L2.16752828,9.87371833 C1.88871877,10.1639993 1.37179746,9.91232986 1.48022336,9.53871469 L2.54717084,5.85256356 Z" id="路径"></path>
                    </g>
                </g>
            </g>
        </g>
    </g>
</svg>