<?xml version="1.0" encoding="UTF-8"?>
<svg width="20px" height="22px" viewBox="0 0 20 22" version="1.1" xmlns="http://www.w3.org/2000/svg" xmlns:xlink="http://www.w3.org/1999/xlink">
    <title>编组</title>
    <g id="页面-1" stroke="none" stroke-width="1" fill="none" fill-rule="evenodd" fill-opacity="0.8">
        <g id="播放器" transform="translate(-1094.000000, -311.000000)" fill="#000000" fill-rule="nonzero">
            <g id="编组-8" transform="translate(770.000000, 270.000000)">
                <g id="编组" transform="translate(324.000000, 41.000000)">
                    <path d="M15.2432424,1.63300107 C11.4472966,1.63300107 11.4472966,0.0524105072 7.65405361,0.0524105072 C6.29612256,0.0689958433 4.96295173,0.425620744 3.7716214,1.09096608 L3.75540519,12.9343615 C3.75540519,12.9343615 5.46216185,11.8944267 7.65270226,11.8944267 C11.4472966,11.8944267 11.4472966,13.4777757 15.241891,13.4777757 C17.6175666,13.4777757 19.9999994,12.2088897 19.9999994,12.2088897 L19.9999994,0.369631998 C20.0013502,0.369631998 17.6189179,1.63300107 15.2432424,1.63300107 L15.2432424,1.63300107 Z M1.35405398,0 C0.708108067,0 0,0.532380415 0,1.1902702 L0,20.8124882 C0,21.4676196 0.691891852,22 1.33648641,22 C1.98108097,22 2.68918903,21.4662404 2.68918903,20.8124882 L2.68918903,1.1902702 C2.68918903,0.532380415 1.99864853,0 1.35405398,0 L1.35405398,0 Z" id="形状"></path>
                </g>
            </g>
        </g>
    </g>
</svg>