<?xml version="1.0" encoding="UTF-8"?>
<svg width="21px" height="14px" viewBox="0 0 21 14" version="1.1" xmlns="http://www.w3.org/2000/svg" xmlns:xlink="http://www.w3.org/1999/xlink">
    <title>形状</title>
    <g id="页面-1" stroke="none" stroke-width="1" fill="none" fill-rule="evenodd">
        <g id="播放器" transform="translate(-864.000000, -635.000000)" fill="#929291" fill-rule="nonzero">
            <g id="编组-8" transform="translate(770.000000, 270.000000)">
                <path d="M94,372 L94,366.364493 C94,365.331401 95.2070435,364.687198 96.1730435,365.202899 L101.444957,368.021498 L106.71687,370.840097 C107.68287,371.355797 107.68287,372.647585 106.71687,373.163285 L101.444957,375.980193 L96.1730435,378.797101 C95.2070435,379.314493 94,378.668599 94,377.635507 L94,372 Z M112.759391,379 C111.526783,379 110.518783,378.066667 110.518783,376.925362 L110.518783,367.074638 C110.518783,365.933333 111.526783,365 112.759391,365 C113.992,365 115,365.933333 115,367.074638 L115,376.927053 C115,378.066667 113.992,379 112.759391,379 Z" id="形状" transform="translate(104.500000, 372.000000) scale(-1, 1) translate(-104.500000, -372.000000) "></path>
            </g>
        </g>
    </g>
</svg>