<?xml version="1.0" encoding="UTF-8"?>
<svg width="21px" height="14px" viewBox="0 0 21 14" version="1.1" xmlns="http://www.w3.org/2000/svg" xmlns:xlink="http://www.w3.org/1999/xlink">
    <title>形状备份</title>
    <g id="页面-1" stroke="none" stroke-width="1" fill="none" fill-rule="evenodd">
        <g id="播放器" transform="translate(-1035.000000, -635.000000)" fill="#929291" fill-rule="nonzero">
            <g id="编组-8" transform="translate(770.000000, 270.000000)">
                <path d="M265,372 L265,366.364493 C265,365.331401 266.207043,364.687198 267.173043,365.202899 L272.444957,368.021498 L277.71687,370.840097 C278.68287,371.355797 278.68287,372.647585 277.71687,373.163285 L272.444957,375.980193 L267.173043,378.797101 C266.207043,379.314493 265,378.668599 265,377.635507 L265,372 Z M283.759391,379 C282.526783,379 281.518783,378.066667 281.518783,376.925362 L281.518783,367.074638 C281.518783,365.933333 282.526783,365 283.759391,365 C284.992,365 286,365.933333 286,367.074638 L286,376.927053 C286,378.066667 284.992,379 283.759391,379 Z" id="形状备份"></path>
            </g>
        </g>
    </g>
</svg>